<svg width="24" height="25" viewBox="0 0 24 25" fill="none" xmlns="http://www.w3.org/2000/svg">
<g clip-path="url(#clip0_1022_89)">
<path d="M9 19.252C4 20.752 4 16.752 2 16.252M16 22.252V18.382C16.0375 17.9052 15.9731 17.4258 15.811 16.9758C15.6489 16.5258 15.3929 16.1154 15.06 15.772C18.2 15.422 21.5 14.232 21.5 8.77201C21.4997 7.37584 20.9627 6.03321 20 5.02201C20.4559 3.80052 20.4236 2.45036 19.91 1.25201C19.91 1.25201 18.73 0.902013 16 2.73201C13.708 2.11083 11.292 2.11083 9 2.73201C6.27 0.902013 5.09 1.25201 5.09 1.25201C4.57638 2.45036 4.54414 3.80052 5 5.02201C4.03013 6.04071 3.49252 7.39548 3.5 8.80201C3.5 14.222 6.8 15.412 9.94 15.802C9.611 16.142 9.35726 16.5474 9.19531 16.9919C9.03335 17.4364 8.96681 17.9101 9 18.382V22.252" stroke="#717171" stroke-width="2" stroke-linecap="round" stroke-linejoin="round"/>
</g>
<defs>
<clipPath id="clip0_1022_89">
<rect width="24" height="24" fill="white" transform="translate(0 0.252014)"/>
</clipPath>
</defs>
</svg>
