<svg width="24" height="25" viewBox="0 0 24 25" fill="none" xmlns="http://www.w3.org/2000/svg">
<path d="M17 2.25201H7C4.23858 2.25201 2 4.49059 2 7.25201V17.252C2 20.0134 4.23858 22.252 7 22.252H17C19.7614 22.252 22 20.0134 22 17.252V7.25201C22 4.49059 19.7614 2.25201 17 2.25201Z" stroke="#717171" stroke-width="2" stroke-linecap="round" stroke-linejoin="round"/>
<path d="M16 11.622C16.1234 12.4543 15.9812 13.3042 15.5937 14.051C15.2062 14.7978 14.5931 15.4034 13.8416 15.7817C13.0901 16.1599 12.2384 16.2916 11.4077 16.1579C10.5771 16.0243 9.80971 15.6321 9.21479 15.0372C8.61987 14.4422 8.22768 13.6749 8.09402 12.8442C7.96035 12.0136 8.09202 11.1619 8.47028 10.4104C8.84854 9.65886 9.45414 9.04575 10.2009 8.65825C10.9477 8.27075 11.7977 8.1286 12.63 8.25201C13.4789 8.3779 14.2648 8.77347 14.8716 9.38032C15.4785 9.98716 15.8741 10.7731 16 11.622Z" stroke="#717171" stroke-width="2" stroke-linecap="round" stroke-linejoin="round"/>
<path d="M17.5 6.75201H17.51" stroke="#717171" stroke-width="2" stroke-linecap="round" stroke-linejoin="round"/>
</svg>
