<svg width="25" height="24" viewBox="0 0 25 24" fill="none" xmlns="http://www.w3.org/2000/svg">
<path d="M16.6216 8C18.2129 8 19.739 8.63214 20.8642 9.75736C21.9894 10.8826 22.6216 12.4087 22.6216 14V21H18.6216V14C18.6216 13.4696 18.4109 12.9609 18.0358 12.5858C17.6607 12.2107 17.152 12 16.6216 12C16.0911 12 15.5824 12.2107 15.2074 12.5858C14.8323 12.9609 14.6216 13.4696 14.6216 14V21H10.6216V14C10.6216 12.4087 11.2537 10.8826 12.3789 9.75736C13.5042 8.63214 15.0303 8 16.6216 8Z" stroke="#717171" stroke-width="2" stroke-linecap="round" stroke-linejoin="round"/>
<path d="M6.62158 9H2.62158V21H6.62158V9Z" stroke="#717171" stroke-width="2" stroke-linecap="round" stroke-linejoin="round"/>
<path d="M4.62158 6C5.72615 6 6.62158 5.10457 6.62158 4C6.62158 2.89543 5.72615 2 4.62158 2C3.51701 2 2.62158 2.89543 2.62158 4C2.62158 5.10457 3.51701 6 4.62158 6Z" stroke="#717171" stroke-width="2" stroke-linecap="round" stroke-linejoin="round"/>
</svg>
